<svg width="48" height="48" viewBox="0 0 48 48" fill="none" xmlns="http://www.w3.org/2000/svg">
<path d="M37.8159 9.6V15.5831H34.8429C32.4528 15.5831 31.2577 16.969 31.2577 19.7408V22.9859H32.5694C34.6097 22.9859 36.3002 23.6958 37.641 25.1155C38.9818 26.5352 39.6522 28.3267 39.6522 30.4901C39.6522 32.8564 38.9818 34.7831 37.641 36.2704C36.3002 37.6901 34.6097 38.4 32.5694 38.4C30.5291 38.4 28.8385 37.6564 27.4978 36.169C26.2152 34.6141 25.574 32.6197 25.574 30.1859V19.6394C25.574 12.9464 28.4595 9.6 34.2308 9.6H37.8159ZM20.5897 9.6V15.5831H17.6167C15.2267 15.5831 14.0316 16.969 14.0316 19.7408V22.9859H15.3432C17.3835 22.9859 19.0741 23.6958 20.4148 25.1155C21.7557 26.5352 22.426 28.3267 22.426 30.4901C22.426 32.8564 21.7557 34.7831 20.4148 36.2704C19.0741 37.6901 17.3835 38.4 15.3432 38.4C13.3029 38.4 11.6124 37.6564 10.2716 36.169C8.98908 34.6141 8.34784 32.6197 8.34784 30.1859V19.6394C8.34784 12.9464 11.2335 9.6 17.0046 9.6H20.5897Z" fill="white"/>
</svg>
